<svg width="32" height="32" viewBox="0 0 32 32" fill="none" xmlns="http://www.w3.org/2000/svg">
<path d="M16 0C7.1824 0 0 7.1824 0 16C0 24.8176 7.1824 32 16 32C24.8176 32 32 24.8176 32 16C32 7.1824 24.8176 0 16 0ZM16 3.2C18.9651 3.2 21.6808 4.2121 23.8469 5.89375L5.89062 23.85C4.20826 21.6837 3.2 18.9658 3.2 16C3.2 8.91181 8.91181 3.2 16 3.2ZM26.1125 8.15312C27.7932 10.3189 28.8 13.0358 28.8 16C28.8 23.0882 23.0882 28.8 16 28.8C13.0358 28.8 10.3189 27.7933 8.15312 26.1125L26.1125 8.15312Z" fill="black"/>
</svg>
