<svg width="38" height="38" viewBox="0 0 38 38" fill="none" xmlns="http://www.w3.org/2000/svg">
<path d="M19 37.6875C15.304 37.6875 11.6909 36.5915 8.61779 34.5381C5.54465 32.4847 3.14942 29.5661 1.73501 26.1514C0.320597 22.7367 -0.0494778 18.9793 0.671584 15.3543C1.39264 11.7292 3.17246 8.39944 5.78595 5.78595C8.39944 3.17246 11.7292 1.39264 15.3543 0.671584C18.9793 -0.0494778 22.7367 0.320597 26.1514 1.73501C29.5661 3.14942 32.4847 5.54465 34.5381 8.61779C36.5915 11.6909 37.6875 15.304 37.6875 19C37.6875 23.9562 35.7187 28.7095 32.2141 32.2141C28.7095 35.7187 23.9562 37.6875 19 37.6875ZM19 3.18751C15.8726 3.18751 12.8154 4.1149 10.2151 5.8524C7.6147 7.58989 5.58797 10.0595 4.39116 12.9488C3.19435 15.8382 2.88121 19.0175 3.49134 22.0849C4.10147 25.1522 5.60746 27.9697 7.81888 30.1811C10.0303 32.3926 12.8478 33.8985 15.9151 34.5087C18.9825 35.1188 22.1618 34.8057 25.0512 33.6089C27.9405 32.412 30.4101 30.3853 32.1476 27.785C33.8851 25.1846 34.8125 22.1274 34.8125 19C34.8125 14.8063 33.1466 10.7843 30.1811 7.81888C27.2157 4.85346 23.1937 3.18751 19 3.18751Z" fill="black"/>
<path d="M19 29.0625C18.6188 29.0625 18.2531 28.9111 17.9835 28.6415C17.714 28.3719 17.5625 28.0062 17.5625 27.625V10.375C17.5625 9.99375 17.714 9.62812 17.9835 9.35853C18.2531 9.08895 18.6188 8.9375 19 8.9375C19.3812 8.9375 19.7469 9.08895 20.0165 9.35853C20.2861 9.62812 20.4375 9.99375 20.4375 10.375V27.625C20.4375 28.0062 20.2861 28.3719 20.0165 28.6415C19.7469 28.9111 19.3812 29.0625 19 29.0625Z" fill="black"/>
<path d="M27.625 20.4375H10.375C9.99375 20.4375 9.62812 20.2861 9.35853 20.0165C9.08895 19.7469 8.9375 19.3812 8.9375 19C8.9375 18.6188 9.08895 18.2531 9.35853 17.9835C9.62812 17.714 9.99375 17.5625 10.375 17.5625H27.625C28.0062 17.5625 28.3719 17.714 28.6415 17.9835C28.9111 18.2531 29.0625 18.6188 29.0625 19C29.0625 19.3812 28.9111 19.7469 28.6415 20.0165C28.3719 20.2861 28.0062 20.4375 27.625 20.4375Z" fill="black"/>
</svg>
