<svg width="42" height="42" viewBox="0 0 42 42" fill="none" xmlns="http://www.w3.org/2000/svg">
<path d="M21 41.125C15.6238 41.125 10.571 39.032 6.77022 35.2298C0.557346 29.0184 -0.918967 19.5984 3.09885 11.7928C3.46253 11.087 4.32791 10.8096 5.03516 11.1718C5.74241 11.5341 6.01985 12.4009 5.65616 13.1081C2.21191 19.7983 3.47691 27.8713 8.80285 33.1972C12.0602 36.456 16.3914 38.25 21 38.25C25.6072 38.25 29.9399 36.456 33.1972 33.1972C36.4546 29.9384 38.25 25.6072 38.25 21C38.25 16.3914 36.456 12.0602 33.1972 8.80281C29.9384 5.54544 25.6087 3.75 21 3.75C16.3914 3.75 12.0602 5.54544 8.80285 8.80281C8.24079 9.36487 7.33229 9.36487 6.77022 8.80281C6.20816 8.24075 6.20816 7.33225 6.77022 6.77019C10.571 2.96944 15.6238 0.875 21 0.875C26.3763 0.875 31.4305 2.96944 35.2299 6.77019C39.032 10.5709 41.125 15.6237 41.125 21C41.125 26.3748 39.032 31.4291 35.2299 35.2298C31.4305 39.032 26.3763 41.125 21 41.125Z" fill="black"/>
<path d="M12.8681 30.568C12.4929 30.568 12.1249 30.4199 11.8518 30.1468C11.4752 29.7702 11.3386 29.2182 11.4939 28.7093L15.3133 16.2649C15.4527 15.8092 15.8107 15.4527 16.2664 15.3118L28.7122 11.4924C29.2197 11.3342 29.7731 11.4737 30.1497 11.8503C30.5264 12.2269 30.6629 12.7789 30.5077 13.2878L26.6882 25.7322C26.5474 26.1879 26.1909 26.5444 25.7352 26.6853L13.2922 30.5033C13.1513 30.5479 13.009 30.568 12.8681 30.568ZM17.8376 17.8375L15.0373 26.9613L24.1611 24.161L26.9614 15.0372L17.8376 17.8375Z" fill="black"/>
</svg>
