<svg width="45" height="45" viewBox="0 0 45 45" fill="none" xmlns="http://www.w3.org/2000/svg">
<path d="M11.7939 19.3125C11.4882 19.6195 11.2983 20.0229 11.2564 20.454C11.2145 20.8852 11.3231 21.3176 11.564 21.6777C11.8048 22.0378 12.1629 22.3035 12.5773 22.4294C12.9918 22.5554 13.4372 22.534 13.8376 22.3687C14.0655 22.2668 14.2747 22.1274 14.4564 21.9562C14.625 21.7835 14.7587 21.5797 14.8501 21.3562C14.9573 21.1278 15.0087 20.8772 15.0001 20.625C14.9981 20.1331 14.8028 19.6617 14.4564 19.3125C14.2821 19.1368 14.0747 18.9973 13.8462 18.9021C13.6177 18.8069 13.3727 18.7579 13.1251 18.7579C12.8776 18.7579 12.6325 18.8069 12.4041 18.9021C12.1756 18.9973 11.9682 19.1368 11.7939 19.3125ZM13.1251 9.375C13.6224 9.375 14.0993 9.57254 14.451 9.92417C14.8026 10.2758 15.0001 10.7527 15.0001 11.25C15.0001 11.7473 14.8026 12.2242 14.451 12.5758C14.0993 12.9275 13.6224 13.125 13.1251 13.125C12.6279 13.125 12.1509 13.3225 11.7993 13.6742C11.4477 14.0258 11.2501 14.5027 11.2501 15C11.2501 15.4973 11.4477 15.9742 11.7993 16.3258C12.1509 16.6775 12.6279 16.875 13.1251 16.875C14.1124 16.8744 15.0821 16.6139 15.9368 16.1198C16.7915 15.6257 17.5011 14.9154 17.9943 14.0602C18.4875 13.2049 18.7469 12.235 18.7465 11.2477C18.7461 10.2605 18.4859 9.29076 17.992 8.43594C17.4981 7.58112 16.788 6.87135 15.9329 6.37793C15.0778 5.88452 14.1079 5.62484 13.1206 5.625C12.1334 5.62516 11.1636 5.88514 10.3086 6.37883C9.45371 6.87252 8.74376 7.58252 8.25014 8.4375C8.12617 8.6515 8.04576 8.88791 8.01354 9.13312C7.98132 9.37833 7.99793 9.62749 8.06241 9.86626C8.1269 10.105 8.23798 10.3287 8.38926 10.5243C8.54054 10.72 8.72904 10.8838 8.94389 11.0062C9.37442 11.2507 9.88416 11.3149 10.3619 11.185C10.8396 11.055 11.2465 10.7414 11.4939 10.3125C11.6591 10.0264 11.897 9.78896 12.1834 9.62433C12.4699 9.4597 12.7947 9.37369 13.1251 9.375ZM35.6251 11.25H24.3751C23.8779 11.25 23.4009 11.4475 23.0493 11.7992C22.6977 12.1508 22.5001 12.6277 22.5001 13.125C22.5001 13.6223 22.6977 14.0992 23.0493 14.4508C23.4009 14.8025 23.8779 15 24.3751 15H35.6251C36.1224 15 36.5993 15.1975 36.951 15.5492C37.3026 15.9008 37.5001 16.3777 37.5001 16.875V35.1L34.5564 32.3812C34.2106 32.0575 33.7551 31.8766 33.2814 31.875H16.8751C16.3779 31.875 15.9009 31.6775 15.5493 31.3258C15.1977 30.9742 15.0001 30.4973 15.0001 30V28.125C15.0001 27.6277 14.8026 27.1508 14.451 26.7992C14.0993 26.4475 13.6224 26.25 13.1251 26.25C12.6279 26.25 12.1509 26.4475 11.7993 26.7992C11.4477 27.1508 11.2501 27.6277 11.2501 28.125V30C11.2501 31.4918 11.8428 32.9226 12.8977 33.9775C13.9526 35.0324 15.3833 35.625 16.8751 35.625H32.5501L38.1751 40.7437C38.5018 41.0505 38.9275 41.2301 39.3751 41.25C39.6323 41.2472 39.8867 41.1963 40.1251 41.1C40.4605 40.9536 40.7458 40.7123 40.9457 40.4058C41.1456 40.0993 41.2514 39.7409 41.2501 39.375V16.875C41.2501 15.3832 40.6575 13.9524 39.6026 12.8975C38.5477 11.8426 37.117 11.25 35.6251 11.25Z" fill="black"/>
</svg>
