<svg width="40" height="36" viewBox="0 0 40 36" fill="none" xmlns="http://www.w3.org/2000/svg">
<path d="M36.1098 2.42622C34.2891 0.782677 31.9526 -0.0665637 29.5927 0.00407552C26.6632 0.00407552 23.7063 1.21279 21.5441 3.45598L20.0047 5.04693L18.4654 3.45598C16.3008 1.21279 13.3471 0.00407552 10.4167 0.00407552C8.05687 0.00407552 5.72278 0.783462 3.83253 2.42622C-1.0232 6.64809 -1.26622 14.1759 3.11128 18.7203L18.2083 34.3944C18.7076 34.9077 19.3484 35.1667 19.9969 35.1667C20.648 35.1667 21.3011 34.9103 21.795 34.3972L36.8841 18.7232C41.2749 14.1712 41.0327 6.64417 36.1098 2.42622ZM34.1953 16.102L20.0047 30.842L5.80951 16.102C3.29022 13.4883 2.69322 8.33166 6.28774 5.27455C9.4056 2.56357 13.6792 3.90101 15.7741 6.07277L20.0071 10.4618L24.2392 6.07277C26.3038 3.9324 30.589 2.54944 33.7257 5.27455C37.2819 8.3709 36.7662 13.4334 34.1953 16.102Z" fill="black"/>
</svg>
