<svg width="42" height="36" viewBox="0 0 42 36" fill="none" xmlns="http://www.w3.org/2000/svg">
<path d="M20.6 35.9536L19.9138 35.3532C4.3029 22.6587 0.0999756 18.1984 0.0999756 10.9076C0.0999756 4.90344 4.98909 0.100098 10.9075 0.100098C15.8824 0.100098 18.7129 2.93063 20.6 5.07498C22.487 2.93063 25.3175 0.100098 30.2924 0.100098C36.2966 0.100098 41.1 4.98921 41.1 10.9076C41.1 18.1984 36.897 22.6587 21.2862 35.3532L20.6 35.9536ZM10.9075 2.33022C6.18993 2.33022 2.33009 6.19005 2.33009 10.9076C2.33009 17.1691 6.2757 21.2863 20.6 33.0373C34.9242 21.2863 38.8699 17.1691 38.8699 10.9076C38.8699 6.19005 35.01 2.33022 30.2924 2.33022C26.0037 2.33022 23.6878 4.90344 21.8866 6.96202L20.6 8.42018L19.3134 6.96202C17.5121 4.90344 15.1962 2.33022 10.9075 2.33022Z" fill="black"/>
</svg>
