<svg width="43" height="44" viewBox="0 0 43 44" fill="none" xmlns="http://www.w3.org/2000/svg">
<path d="M4.08739 26.9591C3.92198 27.1246 3.79102 27.3212 3.7021 27.5376C3.61318 27.754 3.56806 27.9859 3.56936 28.2199L3.6304 37.9325C3.6338 38.4017 3.82339 38.8503 4.15748 39.1797C4.49157 39.5091 4.94281 39.6923 5.41196 39.6891L15.0048 39.6256C15.4694 39.623 15.9144 39.4378 16.2436 39.11L37.0519 18.3017C39.5059 15.8478 39.5066 11.8225 37.0519 9.3686L33.8339 6.15059C31.3798 3.69666 27.3499 3.69668 24.8958 6.15059L4.08739 26.9591ZM7.11235 28.9383L21.4284 14.6222L28.5778 21.7717L14.2569 36.0926L7.15876 36.139L7.11235 28.9383ZM23.9304 12.1202L27.3977 8.65293C28.5088 7.54185 30.2205 7.54187 31.3316 8.65293L34.5496 11.8709C35.6607 12.982 35.6601 14.6889 34.5496 15.8L31.0799 19.2697L23.9304 12.1202Z" fill="black"/>
</svg>
