<svg width="130" height="130" viewBox="0 0 130 130" fill="none" xmlns="http://www.w3.org/2000/svg">
<rect y="40" width="10" height="10" fill="white"/>
<rect x="10" y="60" width="10" height="10" fill="white"/>
<rect x="20" y="60" width="10" height="10" fill="white"/>
<rect x="30" y="60" width="10" height="10" fill="white"/>
<rect x="40" y="50" width="10" height="10" fill="white"/>
<rect x="50" y="40" width="10" height="10" fill="white"/>
<rect x="60" y="40" width="10" height="10" fill="white"/>
<rect x="70" y="40" width="10" height="10" fill="white"/>
<rect x="80" y="50" width="10" height="10" fill="white"/>
<rect x="80" y="40" width="40" height="10" fill="white"/>
<rect x="30" y="20" width="70" height="10" fill="white"/>
<rect x="40" y="10" width="50" height="10" fill="white"/>
<rect x="20" y="30" width="90" height="10" fill="white"/>
<rect x="10" y="40" width="40" height="10" fill="white"/>
<rect x="90" y="60" width="10" height="10" fill="white"/>
<rect x="90" y="50" width="30" height="10" fill="white"/>
<rect x="10" y="50" width="30" height="10" fill="white"/>
<rect x="100" y="60" width="10" height="10" fill="white"/>
<rect x="110" y="60" width="10" height="10" fill="white"/>
<rect x="40" y="70" width="10" height="10" fill="white"/>
<rect x="50" y="80" width="10" height="10" fill="white"/>
<rect x="60" y="80" width="10" height="10" fill="white"/>
<rect x="70" y="80" width="10" height="10" fill="white"/>
<rect x="80" y="70" width="10" height="10" fill="white"/>
<rect x="10" y="30" width="10" height="10" fill="white"/>
<rect x="20" y="20" width="10" height="10" fill="white"/>
<rect x="30" y="10" width="10" height="10" fill="white"/>
<rect y="50" width="10" height="10" fill="white"/>
<rect y="60" width="10" height="10" fill="white"/>
<rect y="70" width="10" height="10" fill="white"/>
<rect y="80" width="10" height="10" fill="white"/>
<rect x="10" y="90" width="10" height="10" fill="white"/>
<rect x="20" y="100" width="10" height="10" fill="white"/>
<rect x="30" y="110" width="10" height="10" fill="white"/>
<rect x="40" width="10" height="10" fill="white"/>
<rect x="50" width="10" height="10" fill="white"/>
<rect x="60" width="10" height="10" fill="white"/>
<rect x="70" width="10" height="10" fill="white"/>
<rect x="80" width="10" height="10" fill="white"/>
<rect x="50" y="120" width="10" height="10" fill="white"/>
<rect x="60" y="120" width="10" height="10" fill="white"/>
<rect x="70" y="120" width="10" height="10" fill="white"/>
<rect x="80" y="120" width="10" height="10" fill="white"/>
<rect x="90" y="110" width="10" height="10" fill="white"/>
<rect x="100" y="100" width="10" height="10" fill="white"/>
<rect x="110" y="90" width="10" height="10" fill="white"/>
<rect x="120" y="80" width="10" height="10" fill="white"/>
<rect x="120" y="70" width="10" height="10" fill="white"/>
<rect x="120" y="60" width="10" height="10" fill="white"/>
<rect x="120" y="50" width="10" height="10" fill="white"/>
<rect x="120" y="40" width="10" height="10" fill="white"/>
<rect x="90" y="10" width="10" height="10" fill="white"/>
<rect x="100" y="20" width="10" height="10" fill="white"/>
<rect x="110" y="30" width="10" height="10" fill="white"/>
<rect x="40" y="120" width="10" height="10" fill="white"/>
</svg>
