<svg width="20" height="21" viewBox="0 0 20 21" fill="none" xmlns="http://www.w3.org/2000/svg">
<g clip-path="url(#clip0_785_1803)">
<path d="M17.5828 11.9166V4.04676C13.4488 3.9773 9.86852 0.753296 9.86852 0.753296C9.86852 0.753296 6.28824 3.9773 2.15424 4.04676H1.91699V11.7237C1.91699 12.0499 1.99255 12.6016 1.99296 12.6032C2.23834 13.835 3.47902 17.2048 9.74868 20.2383C9.74909 20.2411 9.7499 20.244 9.7503 20.2468C9.75274 20.2452 9.75518 20.2444 9.75802 20.2431C9.76046 20.2444 9.7629 20.2452 9.76534 20.2468C9.76615 20.244 9.76655 20.2411 9.76696 20.2383C15.9598 17.2422 17.2452 13.9186 17.5121 12.6503C17.5592 12.4265 17.5828 11.9166 17.5828 11.9166Z" fill="#DA6C5D"/>
</g>
<defs>
<clipPath id="clip0_785_1803">
<rect width="19.5" height="19.5" fill="white" transform="translate(0 0.75)"/>
</clipPath>
</defs>
</svg>
