<svg width="32" height="32" viewBox="0 0 32 32" fill="none" xmlns="http://www.w3.org/2000/svg">
<path d="M29 26.75L21.245 18.9937C22.4948 17.2763 23.167 15.2065 23.165 13.0825C23.165 7.52313 18.6419 3 13.0825 3C7.52313 3 3 7.52313 3 13.0825C3 18.6419 7.52313 23.165 13.0825 23.165C15.2065 23.167 17.2763 22.4948 18.9937 21.245L26.75 29L29 26.75ZM13.0825 19.9806C11.718 19.9807 10.3841 19.5762 9.24953 18.8182C8.11494 18.0602 7.23061 16.9828 6.70838 15.7222C6.18615 14.4616 6.04948 13.0744 6.31565 11.7361C6.58182 10.3979 7.23888 9.16857 8.20372 8.20372C9.16857 7.23888 10.3979 6.58182 11.7361 6.31565C13.0744 6.04948 14.4616 6.18615 15.7222 6.70838C16.9828 7.23061 18.0602 8.11494 18.8182 9.24953C19.5762 10.3841 19.9807 11.718 19.9806 13.0825C19.9785 14.9113 19.251 16.6647 17.9578 17.9578C16.6647 19.251 14.9113 19.9785 13.0825 19.9806Z" fill="black"/>
</svg>
