<svg width="39" height="40" viewBox="0 0 39 40" fill="none" xmlns="http://www.w3.org/2000/svg">
<path fill-rule="evenodd" clip-rule="evenodd" d="M34.1475 21.5875C34.1475 20.9988 34.3437 20.41 34.3437 19.625C34.3437 18.84 34.3437 18.2513 34.1475 17.6625L38.2687 14.3263C38.6612 13.9338 38.6612 13.5413 38.465 13.1488L34.54 6.28C34.3437 6.08375 33.9512 5.8875 33.3625 6.08375L28.4562 8.04625C27.475 7.26125 26.2975 6.6725 25.12 6.08375L24.335 0.98125C24.5312 0.3925 23.9425 0 23.55 0H15.7C15.3075 0 14.7187 0.3925 14.7187 0.785L13.9337 6.08375C12.7562 6.47625 11.775 7.26125 10.5975 8.04625L5.88746 6.08375C5.29871 5.8875 4.90621 6.08375 4.51371 6.47625L0.588709 13.345C0.392459 13.5413 0.588709 14.13 0.981209 14.5225L5.10246 17.6625C5.10246 18.2513 4.90621 18.84 4.90621 19.625C4.90621 20.41 4.90621 20.9988 5.10246 21.5875L0.981209 24.9238C0.588709 25.3163 0.588709 25.7088 0.784959 26.1013L4.70996 32.97C4.90621 33.1663 5.29871 33.3625 5.88746 33.1663L10.7937 31.2038C11.775 31.9888 12.9525 32.5775 14.13 33.1663L14.915 38.2688C14.915 38.6613 15.3075 39.0538 15.8962 39.0538H23.7462C24.1387 39.0538 24.7275 38.6613 24.7275 38.2688L25.5125 33.1663C26.69 32.5775 27.8675 31.9888 28.8487 31.2038L33.755 33.1663C34.1475 33.3625 34.7362 33.1663 34.9325 32.7738L38.8575 25.905C39.0537 25.5125 39.0537 24.9238 38.6612 24.7275L34.1475 21.5875ZM19.625 26.4938C15.8962 26.4938 12.7562 23.3538 12.7562 19.625C12.7562 15.8963 15.8962 12.7563 19.625 12.7563C23.3537 12.7563 26.4937 15.8963 26.4937 19.625C26.4937 23.3538 23.3537 26.4938 19.625 26.4938Z" fill="black"/>
</svg>
